<?xml version="1.0" standalone="no"?>
<!DOCTYPE svg PUBLIC "-//W3C//DTD SVG 20010904//EN"
 "http://www.w3.org/TR/2001/REC-SVG-20010904/DTD/svg10.dtd">
<svg version="1.0" xmlns="http://www.w3.org/2000/svg"
 width="25px" height="30px" viewBox="0 0 32.000000 32.000000"
 preserveAspectRatio="xMidYMid meet">

<g transform="translate(0.000000,32.000000) scale(0.100000,-0.100000)"
fill="#00305c" stroke="none">
<path d="M249 283 c-11 -13 -11 -17 -1 -20 7 -3 12 -23 12 -54 0 -27 5 -49 10
-49 6 0 10 22 10 49 0 31 5 51 13 54 9 3 9 7 -2 20 -7 10 -17 17 -21 17 -4 0
-14 -7 -21 -17z"/>
<path d="M132 278 c-23 -12 -36 -43 -30 -75 8 -41 108 -41 116 0 7 33 -7 63
-33 75 -14 7 -27 12 -28 11 -1 0 -12 -5 -25 -11z m28 -41 c8 0 24 3 35 7 11 4
8 0 -7 -9 -26 -14 -30 -14 -55 0 -16 9 -19 13 -8 9 11 -4 27 -7 35 -7z"/>
<path d="M35 144 c-9 -9 -15 -26 -13 -38 4 -31 72 -31 76 0 3 21 -21 54 -38
54 -5 0 -16 -7 -25 -16z m41 -26 c-9 -5 -23 -5 -32 0 -12 6 -7 9 16 9 23 0 28
-3 16 -9z"/>
<path d="M200 130 c0 -17 -7 -20 -45 -20 -41 0 -45 -2 -45 -25 0 -23 -4 -25
-45 -25 -38 0 -45 -3 -45 -20 0 -19 7 -20 140 -20 l140 0 0 65 0 65 -50 0
c-43 0 -50 -3 -50 -20z"/>
</g>
</svg>
