<?xml version="1.0" standalone="no"?>
<!DOCTYPE svg PUBLIC "-//W3C//DTD SVG 20010904//EN"
 "http://www.w3.org/TR/2001/REC-SVG-20010904/DTD/svg10.dtd">
<svg version="1.0" xmlns="http://www.w3.org/2000/svg"
 width="25px" height="33px" viewBox="0 0 51.000000 51.000000"
 preserveAspectRatio="xMidYMid meet">

<g transform="translate(0.000000,51.000000) scale(0.100000,-0.100000)"
fill="#00305c" stroke="none">
<path d="M350 456 c-27 -33 18 -72 48 -42 13 13 14 20 6 34 -15 23 -38 26 -54
8z"/>
<path d="M67 454 c-13 -13 -7 -52 9 -58 22 -9 46 13 42 38 -3 21 -37 34 -51
20z"/>
<path d="M240 451 c0 -11 67 -71 80 -71 6 0 10 -8 10 -18 0 -10 5 -23 12 -30
9 -9 9 -18 0 -36 -15 -35 -4 -196 14 -196 9 0 14 21 17 73 l3 72 2 -72 c2 -57
5 -73 17 -73 12 0 15 15 17 68 1 37 1 78 0 92 -7 85 -4 104 19 120 43 28 84
68 77 76 -4 3 -23 -7 -42 -24 -62 -54 -134 -52 -187 4 -23 25 -39 31 -39 15z"/>
<path d="M25 356 c-9 -13 -18 -47 -22 -76 -5 -47 -4 -51 13 -48 14 2 20 -4 22
-22 11 -111 10 -107 51 -107 37 0 39 2 45 36 3 20 6 51 6 69 0 26 4 32 18 30
14 -3 17 4 14 46 -4 75 -22 96 -82 96 -41 0 -52 -4 -65 -24z m30 -64 c-3 -3
-11 0 -18 7 -9 10 -8 11 6 5 10 -3 15 -9 12 -12z m90 8 c-3 -5 -12 -10 -18
-10 -7 0 -6 4 3 10 19 12 23 12 15 0z"/>
<path d="M260 310 c0 -5 -12 -11 -27 -11 -28 -2 -28 -2 -3 -6 14 -3 28 -10 32
-17 5 -8 12 -7 22 4 14 14 14 17 -4 28 -12 7 -20 8 -20 2z"/>
<path d="M61 54 c0 -11 3 -14 6 -6 3 7 2 16 -1 19 -3 4 -6 -2 -5 -13z"/>
<path d="M90 54 c0 -8 5 -12 10 -9 6 3 10 10 10 16 0 5 -4 9 -10 9 -5 0 -10
-7 -10 -16z"/>
<path d="M120 55 c0 -8 4 -15 8 -15 5 0 9 7 9 15 0 8 -4 15 -9 15 -4 0 -8 -7
-8 -15z"/>
<path d="M340 54 c0 -8 5 -12 10 -9 6 3 10 10 10 16 0 5 -4 9 -10 9 -5 0 -10
-7 -10 -16z"/>
<path d="M384 58 c-3 -4 -4 -8 -2 -9 36 -8 48 -7 48 5 0 15 -38 18 -46 4z"/>
</g>
</svg>
