<?xml version="1.0" standalone="no"?>
<!DOCTYPE svg PUBLIC "-//W3C//DTD SVG 20010904//EN"
 "http://www.w3.org/TR/2001/REC-SVG-20010904/DTD/svg10.dtd">
<svg version="1.0" xmlns="http://www.w3.org/2000/svg"
 width="20px" height="35px" viewBox="0 0 60.000000 60.000000"
 preserveAspectRatio="xMidYMid meet">

<g transform="translate(0.000000,60.000000) scale(0.100000,-0.100000)"
fill="#00305c" stroke="none">
<path d="M0 300 l0 -300 300 0 300 0 0 90 c0 53 -4 90 -10 90 -5 0 -10 9 -10
20 0 19 -7 20 -180 20 l-180 0 0 160 0 160 25 0 c18 0 25 -5 25 -20 0 -11 5
-20 10 -20 6 0 10 9 10 20 0 13 7 20 20 20 16 0 20 -7 20 -30 0 -16 5 -30 10
-30 26 0 5 -16 -38 -30 -39 -13 -48 -19 -50 -42 -2 -20 1 -28 12 -28 12 0 16
-11 16 -50 l0 -50 130 0 130 0 0 50 c0 38 4 50 15 50 20 0 20 49 0 56 -17 7
-45 59 -45 86 0 11 7 18 20 18 13 0 20 -7 20 -20 0 -11 5 -20 10 -20 6 0 10 9
10 20 0 11 7 20 15 20 10 0 15 10 15 30 l0 30 -300 0 -300 0 0 -300z m580 270
c0 -6 -67 -10 -180 -10 -113 0 -180 4 -180 10 0 6 67 10 180 10 113 0 180 -4
180 -10z m-170 -60 c0 -16 5 -30 10 -30 6 0 10 -4 10 -10 0 -17 -52 -11 -66 8
-7 9 -14 27 -14 40 0 18 5 22 30 22 27 0 30 -3 30 -30z m80 0 c0 -16 5 -30 10
-30 6 0 10 -4 10 -10 0 -17 -52 -11 -66 8 -7 9 -14 27 -14 40 0 18 5 22 30 22
27 0 30 -3 30 -30z m-106 -80 c28 -10 35 -30 11 -30 -11 0 -15 -12 -15 -50 l0
-50 -40 0 -40 0 0 50 c0 38 -4 50 -15 50 -23 0 -18 19 8 30 30 12 60 12 91 0z
m140 0 c28 -10 35 -30 11 -30 -11 0 -15 -12 -15 -50 0 -47 -2 -50 -25 -50 -22
0 -25 4 -25 40 0 30 4 40 16 40 12 0 15 7 12 30 -3 17 -3 30 -2 30 2 0 14 -4
28 -10z m-354 -130 c0 -5 -7 -10 -15 -10 -8 0 -15 -7 -15 -15 0 -8 -4 -15 -10
-15 -5 0 -10 11 -10 25 0 20 5 25 25 25 14 0 25 -4 25 -10z m390 -110 c0 -6
-63 -10 -170 -10 -107 0 -170 4 -170 10 0 6 63 10 170 10 107 0 170 -4 170
-10z m0 -100 l0 -50 -160 0 -160 0 0 50 0 50 160 0 160 0 0 -50z"/>
<path d="M260 90 l0 -30 140 0 140 0 0 30 0 30 -140 0 -140 0 0 -30z m180 10
c0 -5 -6 -10 -14 -10 -8 0 -17 -6 -20 -12 -5 -10 -7 -10 -12 0 -3 6 -12 12
-20 12 -8 0 -14 5 -14 10 0 6 18 10 40 10 22 0 40 -4 40 -10z"/>
</g>
</svg>
