<?xml version="1.0" standalone="no"?>
<!DOCTYPE svg PUBLIC "-//W3C//DTD SVG 20010904//EN"
 "http://www.w3.org/TR/2001/REC-SVG-20010904/DTD/svg10.dtd">
<svg version="1.0" xmlns="http://www.w3.org/2000/svg"
 width="50.000000pt" height="50.000000pt" viewBox="0 0 50.000000 50.000000"
 preserveAspectRatio="xMidYMid meet">

<g transform="translate(0.000000,50.000000) scale(0.100000,-0.100000)"
fill="#000000" stroke="none">
<path d="M170 435 c-15 -18 -10 -45 13 -59 34 -22 73 27 47 59 -16 19 -44 19
-60 0z"/>
<path d="M330 435 c-15 -18 -10 -45 13 -59 34 -22 73 27 47 59 -16 19 -44 19
-60 0z"/>
<path d="M133 338 c-25 -12 -30 -32 -12 -44 7 -4 9 -21 6 -40 -6 -34 -5 -34
33 -34 l39 0 12 56 c11 47 10 57 -2 65 -18 11 -48 10 -76 -3z"/>
<path d="M316 328 c-8 -13 -16 -32 -19 -43 -3 -11 -8 -30 -12 -42 -6 -21 -3
-23 33 -23 35 0 41 3 47 27 6 26 8 26 19 10 15 -20 32 -22 39 -4 4 12 -36 74
-57 89 -19 13 -35 9 -50 -14z"/>
<path d="M60 270 c-16 -32 -19 -45 -10 -54 13 -13 37 14 47 52 11 46 -14 47
-37 2z"/>
<path d="M447 254 c-14 -14 -7 -35 11 -32 9 2 17 10 17 17 0 16 -18 25 -28 15z"/>
<path d="M159 155 c22 -24 41 -50 41 -56 0 -7 8 -5 20 6 25 23 25 29 -2 65
-18 24 -29 30 -61 30 l-40 0 42 -45z"/>
<path d="M317 157 c25 -27 43 -58 47 -81 7 -39 30 -56 48 -38 15 15 -6 95 -34
133 -18 23 -29 29 -61 29 l-40 0 40 -43z"/>
<path d="M110 158 c0 -8 -14 -34 -31 -57 -51 -72 -15 -101 40 -32 36 45 38 61
11 86 -16 15 -20 15 -20 3z"/>
<path d="M270 158 c0 -8 -14 -34 -31 -57 -51 -72 -15 -101 40 -32 36 45 38 61
11 86 -16 15 -20 15 -20 3z"/>
</g>
</svg>
