<?xml version="1.0" encoding="utf-8"?>
<!DOCTYPE svg PUBLIC "-//W3C//DTD SVG 1.0//EN" "http://www.w3.org/TR/2001/REC-SVG-20010904/DTD/svg10.dtd">
<svg version="1.0" xmlns="http://www.w3.org/2000/svg" width="512px" height="512px" viewBox="0 0 512 512" preserveAspectRatio="xMidYMid meet">
 <g fill="#7f32a8">
  <path d="M124 511.4 c0 -0.4 -4.3 -22.1 -9.4 -48.3 -10.3 -51.6 -12.2 -63 -13.2 -79.2 l-0.7 -10.6 -13.1 -3.7 c-15.8 -4.5 -35.9 -12.4 -47.7 -18.9 -23.3 -12.7 -36.4 -27.9 -38.9 -45.2 -1.2 -8.6 -1.3 -59.5 -0.1 -68.7 3.8 -29.5 39.1 -52.8 104.1 -68.8 8.5 -2.1 21.3 -4.8 28.4 -6.1 l12.8 -2.3 -0.6 -9 c-1.3 -16.5 -4.5 -28.4 -24.2 -88 -10.7 -32.5 -19.7 -59.9 -20 -60.8 -0.5 -1.7 7.3 -1.8 154.6 -1.8 147.3 0 155.1 0.1 154.6 1.8 -0.3 0.9 -9.3 28.3 -20 60.8 -19.7 59.8 -23 71.6 -24.2 88 l-0.7 9 12.9 2.3 c7.1 1.3 19.9 4 28.4 6.1 65 16 100.3 39.3 104.1 68.8 1.2 9.2 1.1 60.1 -0.1 68.7 -2.5 17.3 -15.6 32.5 -38.9 45.2 -11.8 6.5 -31.9 14.4 -47.7 18.9 l-13.1 3.7 -0.7 10.6 c-1 16 -2.9 27.3 -13.2 79.3 -5.2 26.2 -9.4 47.9 -9.4 48.2 0 0.4 -59.4 0.6 -132 0.6 -72.6 0 -132 -0.3 -132 -0.6z m117 -75.4 l0 -46 -8.7 0 c-20.4 0 -68.9 -4.6 -91.7 -8.6 -4.5 -0.8 -8.6 -1.4 -9.3 -1.4 -2.4 0 0.6 21.4 9.3 65.5 3.6 18.2 6.7 33.8 7 34.8 0.5 1.6 3.6 1.7 47 1.7 l46.4 0 0 -46z m123.4 44.3 c0.3 -1 3.4 -16.6 7 -34.8 8.7 -44.1 11.7 -65.5 9.3 -65.5 -0.7 0 -6.5 0.9 -12.9 2 -24.4 4 -68.2 8 -87.9 8 l-8.9 0 0 46 0 46 46.4 0 c43.4 0 46.5 -0.1 47 -1.7z m-42.4 -121.7 c76 -7.8 130.6 -23.9 152.8 -45 6.4 -6.1 7.2 -8.1 7.2 -19.1 l0 -9.6 -4.2 2.6 c-65.1 39.9 -220.3 54.4 -345.8 32.4 -37.6 -6.6 -71.6 -17.5 -93.1 -29.8 l-8.4 -4.8 -0.3 8.6 c-0.4 11 0 12.3 5.1 17.8 20.6 22.4 85.6 41.4 161.2 47.3 7.7 0.6 16 1.2 18.5 1.4 12.7 1 92.5 -0.3 107 -1.8z m-22 -58.6 c8 -0.6 18.8 -1.5 24 -2 10 -1.1 43.2 -6.1 43.9 -6.6 0.2 -0.2 -2.8 -8.8 -6.7 -19.1 -11.4 -30.4 -17.9 -54.2 -21.9 -79.3 -2.4 -15.6 -2.4 -47.6 0 -60.8 0.9 -5 1.7 -9.7 1.7 -10.2 0 -0.7 -29.1 -1 -85.1 -1 l-85.1 0 0.5 3.3 c3.1 18.1 3.9 28.2 3.3 43.7 -1.2 33.8 -8.5 64.2 -27.1 113.1 -2 5.1 -3.2 9.6 -2.8 10 2 1.9 49.9 8 71.8 9.2 15 0.8 70.4 0.6 83.5 -0.3z m-179.2 -30.1 c3 -7.7 5.2 -14.3 4.9 -14.5 -0.4 -0.4 -14.7 4.3 -21.2 7.1 -4.7 2 -13.5 7.4 -13.5 8.4 0 1.7 19.5 12.3 24 13 0.3 0.1 2.9 -6.2 5.8 -14z m282.9 11.6 c6.5 -2.5 12.6 -5.7 16.7 -9 2 -1.5 2 -1.5 0 -3 -5.6 -4.5 -32.7 -15.6 -34.2 -14.1 -0.4 0.4 10 28.6 10.5 28.6 0.2 0 3.3 -1.1 7 -2.5z m-341.7 -14.8 c0 -4.4 5.1 -12.6 11.3 -18.3 10.4 -9.4 34.8 -19.8 57.4 -24.5 l6.2 -1.3 2 -8.5 c2.7 -11.1 5 -23.5 4.5 -24 -0.7 -0.7 -19 2.9 -34.9 6.9 -33.8 8.6 -58.1 19.2 -71.1 31.2 -9.9 9.2 -10 16.2 -0.2 25.4 5.2 4.9 9.3 7.8 17.3 12.1 7.2 3.9 7.5 3.9 7.5 1z m398.6 -2.8 c8.1 -4.4 17.7 -12.6 19.9 -17 3.3 -6.2 1.4 -11.9 -5.9 -18.7 -13 -12 -37.3 -22.6 -71.1 -31.2 -15.9 -4 -34.2 -7.6 -34.9 -6.9 -0.5 0.5 1.8 12.9 4.4 23.9 l2.1 8.5 8.2 1.9 c23.7 5.2 46.3 14.9 56.4 24 5.9 5.4 11.3 13.9 11.3 17.8 0 2.6 1.4 2.3 9.6 -2.3z m-99.9 -203.4 l10.1 -30.5 -114.8 0 -114.8 0 10.1 30.5 10.2 30.5 94.5 0 94.5 0 10.2 -30.5z"/>
  <path d="M245.5 266 l-10 -10 10.3 -10.3 10.2 -10.2 10.2 10.2 10.3 10.3 -10 10 c-5.5 5.5 -10.2 10 -10.5 10 -0.3 0 -5 -4.5 -10.5 -10z"/>
 </g>
</svg>