<!-- icon666.com - MILLIONS vector ICONS FREE --><svg width="58px" height="70px" fill="#00305c" id="Capa_1" enable-background="new 0 0 512 512" viewBox="0 0 512 512" xmlns="http://www.w3.org/2000/svg"><g><path d="m512 362v-45c0-41.355-33.645-75-75-75h-75v-29.763c17.459-6.192 30-22.865 30-42.42 0-24.813-20.187-45-45-45s-45 20.187-45 45c0 19.555 12.541 36.228 30 42.42v29.763h-60v-180h-121v-17c0-8.271 6.729-15 15-15h76v-30h-76c-24.813 0-45 20.187-45 45v17h-121v450h437c41.355 0 75-33.645 75-75v-45h-30v-30zm-165-207.183c8.271 0 15 6.729 15 15s-6.729 15-15 15-15-6.729-15-15 6.729-15 15-15zm15 147.183v-30h75c24.813 0 45 20.187 45 45v15h-270v-15c0-24.813 20.187-45 45-45h75v30zm-120-150v30h-212v-30zm0-60v30h-91v-30zm-121 0v30h-91v-30zm-91 120h212v31.509c-34.192 6.968-60 37.271-60 73.491v45h30.016l.031 30h-30.047v45c0 16.871 5.603 32.456 15.041 45h-167.041zm452 225c0 24.813-20.187 45-45 45h-180c-24.813 0-45-20.187-45-45v-15h.078 269.922zm-30-45h-209.953l-.031-30h209.984z"></path></g></svg>