<?xml version="1.0" standalone="no"?>
<!DOCTYPE svg PUBLIC "-//W3C//DTD SVG 20010904//EN"
 "http://www.w3.org/TR/2001/REC-SVG-20010904/DTD/svg10.dtd">
<svg version="1.0" xmlns="http://www.w3.org/2000/svg"
 width="70px" height="70px" viewBox="0 0 512.000000 512.000000"
 preserveAspectRatio="xMidYMid meet">

<g transform="translate(0.000000,512.000000) scale(0.100000,-0.100000)"
fill="#00305c" stroke="none">
<path d="M3480 5083 c-58 -66 -85 -137 -85 -228 0 -70 4 -89 35 -155 48 -104
49 -180 2 -264 -39 -72 -42 -99 -10 -94 16 2 31 20 53 63 28 56 30 68 30 165
-1 96 -3 111 -33 177 -18 41 -32 89 -32 111 0 56 26 124 66 171 22 26 34 49
32 63 -5 34 -23 32 -58 -9z"/>
<path d="M3760 5083 c-49 -56 -82 -136 -88 -213 -4 -60 -1 -76 34 -161 51
-124 52 -181 6 -269 -17 -35 -32 -71 -32 -81 0 -31 33 -22 57 15 63 98 69 247
14 373 -49 114 -39 191 38 287 55 68 28 114 -29 49z"/>
<path d="M4040 5083 c-52 -59 -84 -138 -88 -218 -4 -63 0 -79 34 -160 51 -121
51 -179 2 -273 -37 -70 -38 -92 -8 -92 13 0 29 20 52 67 30 62 33 75 33 163
-1 84 -4 104 -33 173 -50 121 -39 206 39 294 30 34 36 73 13 80 -6 2 -26 -13
-44 -34z"/>
<path d="M2695 4165 c-372 -66 -775 -295 -1072 -609 -110 -116 -144 -178 -151
-274 -4 -59 13 -146 138 -726 78 -363 139 -667 137 -677 -3 -10 -184 -333
-402 -718 -219 -386 -404 -721 -412 -744 -23 -66 -13 -171 23 -236 101 -186
351 -224 496 -74 21 23 214 352 478 817 422 745 470 839 470 909 0 10 -49 249
-110 531 -60 281 -110 515 -110 519 0 4 14 7 30 7 17 0 30 -3 30 -7 0 -4 32
-156 71 -337 58 -269 75 -336 94 -358 14 -16 77 -87 142 -160 l118 -130 7 158
c11 239 -19 1033 -47 1240 -6 40 -5 42 24 46 29 4 29 4 35 -56 23 -223 38
-526 43 -878 6 -417 -2 -608 -33 -768 -19 -101 -18 -144 5 -189 75 -146 269
-157 353 -21 33 53 62 208 78 419 12 156 12 669 1 881 -8 143 -9 146 -44 204
-65 105 -82 173 -82 321 0 110 4 141 24 204 49 148 163 283 302 356 81 42 201
75 276 75 l54 0 -53 47 c-112 100 -248 170 -416 215 -101 27 -377 34 -497 13z"/>
<path d="M3490 3814 c-140 -37 -257 -118 -333 -231 -165 -241 -128 -554 87
-751 62 -56 171 -114 251 -133 72 -16 200 -14 274 5 154 40 304 161 371 300
135 284 26 615 -249 760 -121 63 -278 83 -401 50z"/>
<path d="M3415 2643 c59 -146 117 -374 136 -542 14 -131 7 -344 -17 -477 -15
-85 -16 -108 -5 -143 13 -46 61 -105 100 -125 99 -50 229 -8 276 90 38 81 58
237 59 464 0 216 -10 318 -50 500 -13 57 -64 240 -70 248 -1 2 -29 -4 -62 -12
-76 -20 -230 -20 -302 -1 -70 19 -74 19 -65 -2z"/>
<path d="M3197 2045 c-10 -306 -38 -521 -79 -617 -47 -109 -165 -169 -286
-146 -30 5 -55 8 -57 6 -11 -10 -116 -961 -112 -1009 9 -104 82 -205 182 -251
75 -34 192 -32 260 4 85 46 134 100 160 179 22 65 198 1570 192 1644 -7 96
-28 129 -204 325 l-50 54 -6 -189z"/>
</g>
</svg>
