<!-- icon666.com - MILLIONS vector ICONS FREE --><svg width="60px" height="70px" viewBox="0 0 58 58" xmlns="http://www.w3.org/2000/svg"><g id="Page-1" fill="none" fill-rule="evenodd"><g id="025---100-Push-Ups" fill="#00305c" fill-rule="nonzero"><ellipse id="Oval" cx="39.5" cy="12" rx="3.5" ry="7"></ellipse><ellipse id="Oval" cx="26.5" cy="12" rx="3.5" ry="7"></ellipse><path id="Shape" d="m3 24h42c1.1045695 0 2-.8954305 2-2v-20c0-1.1045695-.8954305-2-2-2h-42c-1.1045695 0-2 .8954305-2 2v20c0 1.1045695.8954305 2 2 2zm36.5-21c3.084 0 5.5 3.953 5.5 9s-2.416 9-5.5 9-5.5-3.953-5.5-9 2.416-9 5.5-9zm-13 0c3.084 0 5.5 3.953 5.5 9s-2.416 9-5.5 9-5.5-3.953-5.5-9 2.416-9 5.5-9zm-13.732 6.44c-.3574883.40863174-.9757262.4573621-1.39282.10978397-.4170937-.34757813-.4806478-.96446848-.14318-1.38978397l4-4.8c.272962-.31515471.7119084-.42950676 1.1039434-.28759365.392035.14191312.656075.51073989.6640566.92759365v15h3c.5522847 0 1 .4477153 1 1s-.4477153 1-1 1h-8c-.5522847 0-1-.4477153-1-1s.4477153-1 1-1h3v-12.238zm-9.536 3.2c-.33746776-.4253155-.27391373-1.0422058.14318003-1.389784.41709375-.3475781 1.03533171-.2988477 1.39281997.109784l1.732 2.078 1.732-2.078c.22562014-.2843523.58761156-.4241148.94578048-.3651597.35816893.0589552.65626586.3073693.77884239.6490353.12257653.3416661.05038233.7229263-.18862287.9961244l-1.968 2.36 1.966 2.36c.2390052.2731981.3111994.6544583.18862287.9961244-.12257653.341666-.42067346.5900801-.77884239.6490353-.35816892.0589551-.72016034-.0808074-.94578048-.3651597l-1.73-2.078-1.732 2.078c-.22562014.2843523-.58761156.4241148-.94578048.3651597-.35816893-.0589552-.65626586-.3073693-.77884239-.6490353-.12257653-.3416661-.05038234-.7229263.18862287-.9961244l1.968-2.36z"></path><path id="Shape" d="m56 54h-8.262c.5619324-.518336.8527924-1.2672637.788-2.029l-1.47-13.512c-.2905328-2.6684064-2.6361609-4.6313361-5.314-4.447l-22 1.517c-1.292169.0889963-2.3546475 1.05263-2.569 2.33-.1351668.8096484-.6188057 1.5192049-1.323 1.941l-14.394 9.311c-1.41749415.8519105-1.87820633 2.6902863-1.03 4.11.22392649.363517.52419098.6740178.88.91-.89872515.3422225-1.42665133 1.275622-1.25686083 2.2221918.16979049.9465697.98922131 1.6382877 1.95086083 1.6468082h54c1.1045695 0 2-.8954305 2-2s-.8954305-2-2-2zm-36.524-9.379 23.27-1.79.8 9.56c.0521752.6145222.3304612 1.1878413.781 1.609h-39.401z"></path><path id="Shape" d="m49.04 38.24.18 1.64c.4218338.0809371.8504732.121122 1.28.12 4.087231.004176 7.4252586-3.2650521 7.5061924-7.3514839.0809339-4.0864317-3.1250292-7.485267-7.2092203-7.6429301-4.0841912-.1576632-7.5426353 2.9839041-7.7769721 7.064414 3.1938244.4134939 5.6852205 2.966968 6.02 6.17z"></path></g></g></svg>