<?xml version="1.0" standalone="no"?>
<!DOCTYPE svg PUBLIC "-//W3C//DTD SVG 20010904//EN"
 "http://www.w3.org/TR/2001/REC-SVG-20010904/DTD/svg10.dtd">
<svg version="1.0" xmlns="http://www.w3.org/2000/svg"
 width="70px" height="70px" viewBox="0 0 512.000000 512.000000"
 preserveAspectRatio="xMidYMid meet">

<g transform="translate(0.000000,512.000000) scale(0.100000,-0.100000)"
fill="#00305c" stroke="none">
<path d="M1405 5109 c-157 -20 -365 -91 -496 -169 -340 -202 -569 -520 -650
-903 -32 -146 -32 -390 -1 -534 97 -449 406 -815 831 -983 l49 -19 7 62 c4 34
16 95 26 136 11 41 19 79 19 86 0 6 -24 22 -53 36 -147 68 -331 227 -427 368
-61 91 -117 217 -147 329 -23 85 -26 116 -26 252 0 193 25 299 107 465 153
308 434 515 771 570 76 13 298 15 1403 15 l1312 0 0 -492 0 -492 -108 107
c-59 58 -120 111 -136 116 -71 28 -153 -5 -186 -74 -42 -87 -23 -125 150 -300
l139 -140 -67 -50 c-161 -120 -258 -333 -237 -519 20 -179 182 -674 395 -1206
75 -188 83 -203 130 -229 65 -36 148 -19 190 38 21 31 224 602 355 1001 92
281 135 441 135 502 0 155 -101 328 -248 424 -31 20 -59 39 -61 41 -3 2 61 70
141 151 120 122 148 155 153 185 14 75 -17 141 -79 171 -81 38 -139 12 -276
-128 l-85 -86 -5 592 -5 593 -22 31 c-49 69 61 64 -1510 63 -780 -1 -1449 -6
-1488 -10z"/>
<path d="M2200 4504 c-264 -57 -470 -312 -470 -584 0 -272 207 -529 470 -584
49 -10 59 -15 40 -19 -14 -3 -59 -12 -102 -20 -319 -64 -585 -320 -679 -653
-21 -75 -22 -101 -26 -537 -4 -447 -4 -459 16 -501 33 -67 77 -86 198 -86 l99
0 68 -697 c76 -782 73 -765 151 -803 41 -20 55 -21 381 -18 332 3 340 3 370
25 17 13 39 37 47 55 11 23 35 235 82 713 36 374 68 690 70 702 5 20 12 21
112 25 92 3 113 6 139 25 64 46 64 46 64 520 0 440 -5 509 -42 623 -109 338
-376 559 -753 626 l-40 7 64 13 c174 36 335 165 410 325 82 175 82 343 0 518
-49 105 -159 221 -258 270 -130 66 -273 85 -411 55z"/>
</g>
</svg>
