<?xml version="1.0" standalone="no"?>
<!DOCTYPE svg PUBLIC "-//W3C//DTD SVG 20010904//EN"
 "http://www.w3.org/TR/2001/REC-SVG-20010904/DTD/svg10.dtd">
<svg version="1.0" xmlns="http://www.w3.org/2000/svg"
 width="70px" height="70px" viewBox="0 0 512.000000 512.000000"
 preserveAspectRatio="xMidYMid meet">

<g transform="translate(0.000000,512.000000) scale(0.100000,-0.100000)"
fill="#00305c" stroke="none">
<path d="M1516 4869 c-63 -15 -153 -68 -202 -121 -98 -105 -134 -249 -100
-407 28 -134 30 -135 205 -211 84 -36 160 -75 167 -85 35 -47 6 -108 -58 -126
l-41 -11 328 -328 c181 -181 331 -327 333 -325 2 2 -12 60 -32 129 -20 69 -36
135 -36 147 0 12 26 48 66 89 l66 68 -146 182 c-117 146 -146 188 -146 213 0
26 22 52 145 176 l145 146 -164 190 c-95 111 -181 202 -207 218 -91 57 -221
80 -323 56z"/>
<path d="M3400 4866 c-76 -22 -132 -56 -191 -116 -90 -93 -112 -125 -100 -149
7 -12 11 -92 11 -203 0 -147 -3 -188 -15 -205 -10 -14 -56 -35 -140 -63 l-126
-42 17 -26 c10 -15 55 -83 101 -152 57 -86 83 -134 83 -154 0 -25 -26 -56
-154 -185 l-153 -156 35 -107 36 -108 61 0 61 0 441 443 c436 437 441 443 481
527 136 284 70 551 -164 666 -62 31 -84 37 -156 40 -50 2 -101 -2 -128 -10z"/>
<path d="M2775 4468 c-23 -62 -84 -252 -82 -255 2 -1 62 17 133 40 l129 44 3
91 3 92 -91 0 c-63 0 -92 -4 -95 -12z"/>
<path d="M911 4076 l-63 -64 62 -42 63 -43 96 27 c188 53 203 58 194 66 -10 9
-268 120 -280 120 -5 0 -37 -29 -72 -64z"/>
<path d="M3796 3561 l-118 -118 37 -184 c20 -101 38 -191 41 -200 3 -10 54 35
163 145 l159 160 -79 158 c-43 87 -80 158 -82 158 -1 0 -56 -53 -121 -119z"/>
<path d="M1362 3029 l3 -92 129 -44 c71 -23 131 -41 133 -40 1 2 -17 62 -40
133 l-44 129 -92 3 -92 3 3 -92z"/>
<path d="M1760 3008 c0 -18 19 -90 42 -160 48 -145 47 -172 -10 -198 l-33 -15
4 -225 c3 -165 8 -240 20 -280 61 -214 171 -368 344 -480 136 -89 259 -125
433 -125 174 0 297 36 433 125 172 112 281 263 345 480 13 46 17 125 20 483
l3 427 -182 0 -183 0 -82 -80 c-64 -63 -88 -80 -111 -80 -45 0 -70 25 -93 95
l-22 65 -155 0 c-144 0 -155 -1 -148 -17 4 -10 9 -35 12 -55 4 -30 1 -41 -20
-62 -47 -47 -78 -37 -171 54 l-82 80 -182 0 -182 0 0 -32z m560 -528 l0 -80
-160 0 -160 0 0 80 0 80 160 0 160 0 0 -80z m800 0 l0 -80 -160 0 -160 0 0 80
0 80 160 0 160 0 0 -80z m-427 -508 c27 -12 63 -34 80 -48 30 -25 97 -110 97
-124 0 -3 -32 -22 -72 -41 -48 -23 -72 -30 -75 -22 -18 51 -99 103 -163 103
-64 0 -145 -52 -163 -103 -3 -8 -27 -1 -75 22 -40 19 -72 38 -72 41 0 13 66
98 95 122 95 79 238 99 348 50z"/>
<path d="M1535 2466 c-67 -29 -105 -106 -90 -183 9 -49 69 -109 118 -118 21
-4 39 -6 41 -4 2 2 1 75 -2 162 -5 173 -4 171 -67 143z"/>
<path d="M3518 2323 c-3 -87 -4 -160 -2 -162 2 -2 20 0 41 4 49 9 109 69 118
118 15 79 -23 155 -92 183 -61 26 -60 29 -65 -143z"/>
<path d="M2240 1247 l0 -162 154 -93 c85 -50 160 -92 166 -92 6 0 81 42 166
92 l154 93 0 162 c0 90 -3 163 -6 163 -3 0 -42 -10 -87 -22 -67 -18 -109 -22
-227 -22 -118 0 -160 4 -227 22 -45 12 -84 22 -87 22 -3 0 -6 -73 -6 -163z"/>
<path d="M1928 950 c-42 -4 -97 -11 -122 -14 l-46 -7 0 -65 0 -64 171 0 c94 0
178 -4 188 -9 10 -6 46 -53 81 -105 34 -53 67 -96 72 -96 4 0 53 23 108 50 96
48 100 52 100 83 0 31 -6 36 -171 135 l-170 102 -67 -1 c-37 -1 -101 -5 -144
-9z"/>
<path d="M2808 857 c-162 -98 -168 -103 -168 -134 0 -31 4 -35 100 -83 55 -27
104 -50 108 -50 5 0 38 43 72 96 35 52 71 99 81 105 10 5 94 9 188 9 l171 0 0
65 0 64 -32 6 c-57 9 -251 25 -303 24 -45 -1 -66 -11 -217 -102z"/>
<path d="M1510 879 c-365 -94 -722 -274 -1005 -504 -49 -40 -103 -87 -119
-104 l-30 -31 1062 0 1062 0 0 135 0 135 -110 -55 c-111 -56 -137 -63 -169
-46 -10 6 -50 60 -91 120 l-73 111 -194 0 c-193 0 -194 0 -218 25 -23 23 -25
31 -25 130 0 58 -3 105 -7 104 -5 0 -42 -9 -83 -20z"/>
<path d="M3520 795 c0 -99 -2 -107 -25 -130 -24 -25 -25 -25 -218 -25 l-194 0
-73 -111 c-41 -60 -81 -114 -91 -120 -32 -17 -58 -10 -169 46 l-110 55 0 -135
0 -135 1062 0 1062 0 -30 31 c-51 54 -225 190 -334 261 -126 83 -341 193 -482
248 -91 36 -365 120 -389 120 -5 0 -9 -47 -9 -105z"/>
</g>
</svg>
