<?xml version="1.0" standalone="no"?>
<!DOCTYPE svg PUBLIC "-//W3C//DTD SVG 20010904//EN"
 "http://www.w3.org/TR/2001/REC-SVG-20010904/DTD/svg10.dtd">
<svg version="1.0" xmlns="http://www.w3.org/2000/svg"
 width="70px" height="70px" viewBox="0 0 512.000000 512.000000"
 preserveAspectRatio="xMidYMid meet">

<g transform="translate(0.000000,512.000000) scale(0.100000,-0.100000)"
fill="#00305c" stroke="none">
<path d="M2360 4364 c-795 -99 -1425 -681 -1580 -1460 -31 -154 -38 -428 -16
-584 79 -545 386 -1014 856 -1307 388 -241 904 -325 1344 -219 91 22 93 22
146 4 226 -77 502 -60 715 42 195 94 355 253 452 450 57 117 85 230 90 371 6
137 -4 217 -41 333 -20 65 -21 76 -9 121 39 150 47 231 48 450 0 190 -3 235
-23 334 -131 650 -574 1160 -1196 1377 -184 64 -314 85 -546 89 -113 2 -221 1
-240 -1z m271 -673 l29 -29 0 -573 0 -573 -346 -347 c-258 -259 -354 -349
-376 -353 -80 -16 -153 76 -117 147 6 12 150 162 320 332 l309 310 2 528 3
529 33 29 c45 41 102 41 143 0z m1014 -1275 c237 -80 410 -260 486 -506 31
-98 33 -289 5 -390 -72 -261 -275 -464 -536 -536 -100 -28 -292 -26 -390 5
-264 81 -455 280 -522 544 -17 66 -19 102 -16 201 8 198 66 339 198 479 104
112 214 177 361 217 111 30 303 23 414 -14z"/>
<path d="M3310 2224 c-64 -12 -154 -49 -207 -83 -73 -48 -124 -104 -163 -181
-135 -267 -28 -600 234 -728 87 -43 139 -55 236 -55 242 -1 446 152 516 388
38 127 16 304 -51 421 -53 91 -161 175 -276 215 -63 21 -228 34 -289 23z m204
-217 l36 -12 -214 -214 -214 -213 -10 33 c-30 97 -19 197 32 276 79 125 231
178 370 130z m202 -202 c18 -45 18 -138 -1 -202 -20 -68 -89 -144 -163 -180
-47 -23 -70 -28 -132 -28 -41 0 -90 7 -108 14 l-34 14 209 209 c114 114 209
208 211 208 2 0 10 -16 18 -35z"/>
</g>
</svg>
