<?xml version="1.0" standalone="no"?>
<!DOCTYPE svg PUBLIC "-//W3C//DTD SVG 20010904//EN"
 "http://www.w3.org/TR/2001/REC-SVG-20010904/DTD/svg10.dtd">
<svg version="1.0" xmlns="http://www.w3.org/2000/svg"
 width="70px" height="70px" viewBox="0 0 512.000000 512.000000"
 preserveAspectRatio="xMidYMid meet">

<g transform="translate(0.000000,512.000000) scale(0.100000,-0.100000)"
fill="#00305c" stroke="none">
<path d="M2064 5099 c-66 -25 -136 -87 -164 -143 -25 -53 -37 -168 -21 -209 8
-21 17 -28 34 -25 21 3 22 7 19 74 -3 57 1 81 19 123 25 59 87 114 151 133 49
14 65 32 48 53 -16 19 -23 18 -86 -6z"/>
<path d="M2625 5015 c-135 -29 -239 -87 -325 -181 -138 -152 -191 -361 -140
-558 28 -112 73 -190 160 -276 183 -184 444 -230 679 -120 184 87 311 260 341
466 36 247 -100 504 -324 614 -132 65 -262 84 -391 55z m514 -820 c15 -4 20
-12 17 -22 -3 -8 -9 -26 -12 -40 -6 -24 -9 -24 -58 -16 -118 19 -242 -6 -350
-72 l-59 -36 -29 28 c-15 15 -28 30 -28 34 0 13 133 88 196 110 96 34 241 40
323 14z"/>
<path d="M2114 4971 c-28 -16 -58 -41 -67 -55 -29 -43 -41 -109 -31 -157 8
-38 13 -44 34 -44 24 0 25 2 22 60 -3 70 19 115 69 143 62 34 75 48 60 66 -18
22 -28 20 -87 -13z"/>
<path d="M1984 4109 c-153 -48 -265 -218 -339 -514 -42 -165 -88 -487 -83
-571 5 -87 41 -137 128 -182 106 -53 197 -58 648 -37 360 17 578 16 647 -3 17
-5 35 -17 40 -28 21 -40 42 -63 78 -84 l37 -22 -1 154 c-1 84 -4 184 -8 222
l-6 70 -50 13 c-118 31 -313 37 -685 19 -195 -9 -384 -16 -418 -16 l-64 0 7
63 c9 78 30 201 51 295 l16 73 32 -7 c17 -3 32 -7 33 -8 0 0 -7 -39 -17 -86
-11 -47 -25 -125 -33 -174 l-14 -89 171 7 c94 4 262 11 374 16 204 9 446 0
527 -20 69 -17 67 -19 59 75 l-7 85 31 0 c27 0 32 -4 37 -32 29 -172 42 -682
26 -1010 -11 -211 -10 -241 4 -274 20 -49 41 -72 87 -95 79 -40 179 -10 224
67 23 39 26 59 34 196 13 207 12 720 0 898 -32 453 -108 770 -217 899 l-29 34
-84 -84 c-199 -198 -465 -257 -721 -160 -124 47 -253 155 -324 270 -38 61 -38
61 -84 60 -25 0 -74 -9 -107 -20z"/>
<path d="M2370 2740 c-74 -5 -207 -11 -295 -13 l-160 -4 1 -244 2 -244 125
-1011 c135 -1095 130 -1064 202 -1138 57 -58 115 -81 205 -81 62 0 84 5 126
27 98 51 156 144 155 251 0 50 -168 1471 -186 1570 -4 27 -4 27 55 27 41 0 60
-4 60 -12 0 -7 47 -381 105 -830 84 -657 108 -827 126 -868 41 -96 154 -170
259 -170 136 0 266 114 284 250 4 30 -28 310 -97 846 l-103 801 -35 35 c-67
66 -74 94 -69 258 3 80 5 205 5 279 l0 135 -33 8 c-32 9 -110 76 -130 113 -10
19 -22 20 -239 21 -125 1 -289 -2 -363 -6z"/>
</g>
</svg>
